<?xml version="1.0" standalone="no"?>
<!DOCTYPE svg PUBLIC "-//W3C//DTD SVG 20010904//EN"
 "http://www.w3.org/TR/2001/REC-SVG-20010904/DTD/svg10.dtd">
<svg version="1.0" xmlns="http://www.w3.org/2000/svg"
 width="700.000000pt" height="700.000000pt" viewBox="0 0 700.000000 700.000000"
 preserveAspectRatio="xMidYMid meet">
<metadata>
Created by potrace 1.14, written by Peter Selinger 2001-2017
</metadata>
<g transform="translate(0.000000,700.000000) scale(0.100000,-0.100000)"
fill="#000000" stroke="none">
<path d="M3612 6989 c-397 -68 -699 -419 -705 -819 -3 -163 13 -245 74 -378
117 -256 362 -443 639 -489 34 -5 -618 -9 -1692 -8 -962 0 -1747 -3 -1745 -7
1 -5 537 -543 1191 -1197 l1188 -1188 -628 0 c-715 -1 -739 -2 -899 -48 -323
-94 -605 -332 -742 -625 -93 -199 -118 -313 -117 -530 0 -139 6 -190 36 -300
122 -460 502 -798 981 -874 79 -13 296 -14 347 -2 14 4 41 9 60 12 162 25 375
128 527 253 241 199 396 490 428 801 2 19 4 93 4 164 1 71 3 127 5 125 2 -2 7
-35 11 -74 4 -38 8 -72 10 -75 2 -3 6 -24 9 -46 37 -249 165 -560 324 -789
306 -442 764 -747 1282 -854 170 -36 239 -39 845 -40 l591 -1 -1 1687 c0 929
1 1692 4 1697 2 5 10 -14 18 -43 49 -192 207 -353 408 -416 113 -36 310 -24
412 26 175 85 295 299 329 584 3 33 8 69 11 80 2 11 7 97 10 191 7 202 -6 276
-66 375 -96 158 -249 251 -426 258 -159 6 -281 56 -380 157 -94 95 -145 216
-146 349 -1 289 208 500 517 518 110 7 199 35 273 85 218 149 287 409 182 683
-61 161 -220 320 -379 379 -234 88 -447 57 -603 -90 -104 -97 -154 -206 -165
-355 -12 -176 -53 -276 -153 -375 -75 -74 -140 -113 -232 -136 -176 -45 -355
4 -485 132 -102 102 -150 224 -155 399 -12 368 -273 691 -637 786 -87 23 -276
33 -360 18z"/>
</g>
</svg>
