<?xml version="1.0" encoding="iso-8859-1"?>
<!-- Generator: Adobe Illustrator 19.0.0, SVG Export Plug-In . SVG Version: 6.00 Build 0)  -->
<svg version="1.1" id="Layer_1" xmlns="http://www.w3.org/2000/svg" xmlns:xlink="http://www.w3.org/1999/xlink" x="0px" y="0px"
	 viewBox="0 0 512 512" style="enable-background:new 0 0 512 512;" xml:space="preserve">
<path style="fill:#E07188;" d="M99.902,299.707c-48.278,0-87.415,39.137-87.415,87.415s39.137,87.415,87.415,87.415
	s87.415-39.137,87.415-87.415v-12.488h24.976v-74.927H99.902z"/>
<polygon style="fill:#F8E99B;" points="12.488,124.878 187.317,299.707 212.293,299.707 212.293,124.878 "/>
<path style="fill:#E07188;" d="M412.098,256c0,24.139,19.568,43.707,43.707,43.707c31.22,0,43.707-24.976,43.707-74.927
	c0-20.69-16.774-37.463-37.463-37.463c-20.69,0-37.463-16.774-37.463-37.463s16.774-37.463,37.463-37.463
	c20.69,0,37.463-16.774,37.463-37.463c0-27.587-22.364-49.951-49.951-49.951c-20.69,0-37.463,16.774-37.463,37.463
	s-16.774,37.463-37.463,37.463s-37.463-16.774-37.463-37.463C337.171,27.955,309.216,0,274.732,0
	c-34.484,0-62.439,27.955-62.439,62.439s27.955,62.439,62.439,62.439"/>
<path style="fill:#E02753;" d="M462.049,187.317c-20.69,0-37.463-16.774-37.463-37.463s16.774-37.463,37.463-37.463
	c20.69,0,37.463-16.774,37.463-37.463c0-27.587-22.364-49.951-49.951-49.951c-20.69,0-37.463,16.774-37.463,37.463
	s-16.774,37.463-37.463,37.463s-37.463-16.774-37.463-37.463c0-25.601-15.415-47.591-37.463-57.229v143.507L412.098,256
	c0,24.139,19.568,43.707,43.707,43.707c31.22,0,43.707-24.976,43.707-74.927C499.512,204.091,482.739,187.317,462.049,187.317z"/>
<path style="fill:#F8F8F9;" d="M274.732,124.878h-87.415v237.268c0,82.762,67.092,149.854,149.854,149.854h74.927V262.244
	C412.098,186.379,350.596,124.878,274.732,124.878z"/>
<path style="fill:#EDEDED;" d="M299.707,127.15v380.129c11.975,3.082,24.527,4.722,37.463,4.722h74.927V262.244
	C412.098,194.908,363.647,138.896,299.707,127.15z"/>
<path style="fill:#58575D;" d="M299.707,262.244h-0.002c-13.77,0-24.973-11.204-24.973-24.976
	c0.005-13.774,11.209-24.976,24.976-24.976c13.772,0,24.976,11.204,24.976,24.976C324.683,251.04,313.479,262.244,299.707,262.244z"
	/>
<g>
</g>
<g>
</g>
<g>
</g>
<g>
</g>
<g>
</g>
<g>
</g>
<g>
</g>
<g>
</g>
<g>
</g>
<g>
</g>
<g>
</g>
<g>
</g>
<g>
</g>
<g>
</g>
<g>
</g>
</svg>
